<svg width="14" height="14" viewBox="0 0 14 14" fill="none" xmlns="http://www.w3.org/2000/svg">
<path d="M6.53834 0.50999C6.70914 0.0993437 7.29086 0.0993423 7.46166 0.509989L8.99874 4.20558C9.07075 4.3787 9.23355 4.49698 9.42045 4.51197L13.4102 4.83182C13.8535 4.86736 14.0332 5.42062 13.6955 5.70995L10.6557 8.31381C10.5133 8.43578 10.4512 8.62717 10.4947 8.80955L11.4234 12.7028C11.5265 13.1354 11.0559 13.4774 10.6764 13.2455L7.26063 11.1592C7.10062 11.0615 6.89938 11.0615 6.73937 11.1592L3.32363 13.2455C2.94408 13.4774 2.47345 13.1354 2.57665 12.7028L3.50534 8.80955C3.54884 8.62717 3.48665 8.43578 3.34426 8.31381L0.304527 5.70995C-0.0332418 5.42062 0.14652 4.86736 0.589847 4.83182L4.57955 4.51197C4.76645 4.49698 4.92925 4.3787 5.00126 4.20558L6.53834 0.50999Z" fill="#FDB022"/>
</svg>
